<mxfile host="www.draw.io" modified="2019-11-27T00:38:30.422Z" agent="Mozilla/5.0 (Windows NT 10.0; Win64; x64) AppleWebKit/537.36 (KHTML, like Gecko) Chrome/78.0.3904.108 Safari/537.36" etag="Zq9mh1Cm13r8FrgUgZjD" version="12.2.7" type="github" pages="2">
  <diagram name="Main-1" id="5cOg8ej0yZ3aYf5UXj4f">
    <mxGraphModel dx="1408" dy="748" grid="1" gridSize="10" guides="1" tooltips="1" connect="1" arrows="1" fold="1" page="1" pageScale="1" pageWidth="1100" pageHeight="850" background="#ffffff" math="0" shadow="0">
      <root>
        <mxCell id="4CPlkzjtZhPGL_kiiR8u-0"/>
        <mxCell id="4CPlkzjtZhPGL_kiiR8u-1" parent="4CPlkzjtZhPGL_kiiR8u-0"/>
        <mxCell id="4CPlkzjtZhPGL_kiiR8u-2" value="" style="strokeWidth=1;shadow=0;dashed=0;align=center;html=1;shape=mxgraph.mockup.containers.browserWindow;rSize=0;strokeColor=#666666;mainText=,;recursiveResize=0;rounded=0;labelBackgroundColor=none;fontFamily=Verdana;fontSize=12" vertex="1" parent="4CPlkzjtZhPGL_kiiR8u-1">
          <mxGeometry x="30" y="20" width="1050" height="820" as="geometry"/>
        </mxCell>
        <mxCell id="4CPlkzjtZhPGL_kiiR8u-3" value="Page 1" style="strokeWidth=1;shadow=0;dashed=0;align=center;html=1;shape=mxgraph.mockup.containers.anchor;fontSize=17;fontColor=#666666;align=left;" vertex="1" parent="4CPlkzjtZhPGL_kiiR8u-2">
          <mxGeometry x="60" y="12" width="110" height="26" as="geometry"/>
        </mxCell>
        <mxCell id="4CPlkzjtZhPGL_kiiR8u-4" value="https://www.default.com" style="strokeWidth=1;shadow=0;dashed=0;align=center;html=1;shape=mxgraph.mockup.containers.anchor;rSize=0;fontSize=17;fontColor=#666666;align=left;" vertex="1" parent="4CPlkzjtZhPGL_kiiR8u-2">
          <mxGeometry x="130" y="60" width="250" height="26" as="geometry"/>
        </mxCell>
        <mxCell id="4CPlkzjtZhPGL_kiiR8u-5" value="Search" style="strokeWidth=1;shadow=0;dashed=0;align=center;html=1;shape=mxgraph.mockup.forms.searchBox;strokeColor=#999999;mainText=;strokeColor2=#008cff;fontColor=#666666;fontSize=17;align=left;spacingLeft=3;rounded=0;labelBackgroundColor=none;" vertex="1" parent="4CPlkzjtZhPGL_kiiR8u-2">
          <mxGeometry x="410" y="200" width="220" height="30" as="geometry"/>
        </mxCell>
        <mxCell id="4CPlkzjtZhPGL_kiiR8u-6" value="" style="verticalLabelPosition=bottom;shadow=0;dashed=0;align=center;html=1;verticalAlign=top;strokeWidth=1;shape=mxgraph.mockup.markup.line;strokeColor=#999999;rounded=0;labelBackgroundColor=none;fillColor=#ffffff;fontFamily=Verdana;fontSize=12;fontColor=#000000;" vertex="1" parent="4CPlkzjtZhPGL_kiiR8u-2">
          <mxGeometry y="150" width="1050" height="20" as="geometry"/>
        </mxCell>
        <mxCell id="4CPlkzjtZhPGL_kiiR8u-7" value="" style="verticalLabelPosition=bottom;shadow=0;dashed=0;align=center;html=1;verticalAlign=top;strokeWidth=1;shape=mxgraph.mockup.markup.line;strokeColor=#999999;rounded=0;labelBackgroundColor=none;fillColor=#ffffff;fontFamily=Verdana;fontSize=12;fontColor=#000000;" vertex="1" parent="4CPlkzjtZhPGL_kiiR8u-2">
          <mxGeometry y="100" width="1050" height="20" as="geometry"/>
        </mxCell>
        <mxCell id="4CPlkzjtZhPGL_kiiR8u-8" value="LOGO" style="text;html=1;points=[];align=center;verticalAlign=middle;spacingTop=-4;fontSize=30;fontFamily=Verdana;fontColor=#000000;" vertex="1" parent="4CPlkzjtZhPGL_kiiR8u-2">
          <mxGeometry y="110" width="110" height="50" as="geometry"/>
        </mxCell>
        <mxCell id="4CPlkzjtZhPGL_kiiR8u-9" value="MENU2" style="text;html=1;points=[];align=center;verticalAlign=middle;spacingTop=-4;fontSize=18;fontFamily=Verdana;fontColor=#000000;" vertex="1" parent="4CPlkzjtZhPGL_kiiR8u-2">
          <mxGeometry x="220" y="110" width="110" height="50" as="geometry"/>
        </mxCell>
        <mxCell id="4CPlkzjtZhPGL_kiiR8u-10" value="MENU1" style="text;html=1;points=[];align=center;verticalAlign=middle;spacingTop=-4;fontSize=18;fontFamily=Verdana;fontColor=#000000;" vertex="1" parent="4CPlkzjtZhPGL_kiiR8u-2">
          <mxGeometry x="110" y="110" width="110" height="50" as="geometry"/>
        </mxCell>
        <mxCell id="4CPlkzjtZhPGL_kiiR8u-11" value="" style="pointerEvents=1;shadow=0;dashed=0;html=1;strokeColor=none;fillColor=#505050;labelPosition=center;verticalLabelPosition=bottom;verticalAlign=top;outlineConnect=0;align=center;shape=mxgraph.office.users.user;" vertex="1" parent="4CPlkzjtZhPGL_kiiR8u-2">
          <mxGeometry x="991.5" y="117" width="30" height="33" as="geometry"/>
        </mxCell>
        <mxCell id="4CPlkzjtZhPGL_kiiR8u-12" value="&lt;table border=&quot;1&quot; width=&quot;100%&quot; height=&quot;100%&quot; style=&quot;width:100%;height:100%;border-collapse:collapse;&quot;&gt;&lt;tr&gt;&lt;td align=&quot;center&quot;&gt;Value 1&lt;/td&gt;&lt;td align=&quot;center&quot;&gt;Value 2&lt;/td&gt;&lt;td align=&quot;center&quot;&gt;Value 3&lt;/td&gt;&lt;/tr&gt;&lt;tr&gt;&lt;td align=&quot;center&quot;&gt;Value 4&lt;/td&gt;&lt;td align=&quot;center&quot;&gt;Value 5&lt;/td&gt;&lt;td align=&quot;center&quot;&gt;Value 6&lt;/td&gt;&lt;/tr&gt;&lt;tr&gt;&lt;td align=&quot;center&quot;&gt;Value 7&lt;/td&gt;&lt;td align=&quot;center&quot;&gt;Value 8&lt;/td&gt;&lt;td align=&quot;center&quot;&gt;Value 9&lt;/td&gt;&lt;/tr&gt;&lt;/table&gt;" style="text;html=1;strokeColor=#999999;fillColor=#ffffff;overflow=fill;rounded=0;shadow=0;dashed=0;fontFamily=Verdana;align=center;strokeWidth=1;labelBackgroundColor=none;textOpacity=20;" vertex="1" parent="4CPlkzjtZhPGL_kiiR8u-2">
          <mxGeometry x="40" y="300" width="180" height="140" as="geometry"/>
        </mxCell>
        <mxCell id="4CPlkzjtZhPGL_kiiR8u-18" value="" style="rounded=0;whiteSpace=wrap;html=1;shadow=0;dashed=0;fontFamily=Verdana;verticalAlign=top;strokeColor=#333333;strokeWidth=2;gradientColor=none;labelBackgroundColor=none;" vertex="1" parent="4CPlkzjtZhPGL_kiiR8u-2">
          <mxGeometry x="69" y="325" width="122" height="90" as="geometry"/>
        </mxCell>
        <mxCell id="4CPlkzjtZhPGL_kiiR8u-19" value="&lt;table border=&quot;1&quot; width=&quot;100%&quot; height=&quot;100%&quot; style=&quot;width:100%;height:100%;border-collapse:collapse;&quot;&gt;&lt;tr&gt;&lt;td align=&quot;center&quot;&gt;Value 1&lt;/td&gt;&lt;td align=&quot;center&quot;&gt;Value 2&lt;/td&gt;&lt;td align=&quot;center&quot;&gt;Value 3&lt;/td&gt;&lt;/tr&gt;&lt;tr&gt;&lt;td align=&quot;center&quot;&gt;Value 4&lt;/td&gt;&lt;td align=&quot;center&quot;&gt;Value 5&lt;/td&gt;&lt;td align=&quot;center&quot;&gt;Value 6&lt;/td&gt;&lt;/tr&gt;&lt;tr&gt;&lt;td align=&quot;center&quot;&gt;Value 7&lt;/td&gt;&lt;td align=&quot;center&quot;&gt;Value 8&lt;/td&gt;&lt;td align=&quot;center&quot;&gt;Value 9&lt;/td&gt;&lt;/tr&gt;&lt;/table&gt;" style="text;html=1;strokeColor=#999999;fillColor=#ffffff;overflow=fill;rounded=0;shadow=0;dashed=0;fontFamily=Verdana;align=center;strokeWidth=1;labelBackgroundColor=none;textOpacity=20;" vertex="1" parent="4CPlkzjtZhPGL_kiiR8u-2">
          <mxGeometry x="244" y="300" width="180" height="140" as="geometry"/>
        </mxCell>
        <mxCell id="4CPlkzjtZhPGL_kiiR8u-20" value="" style="rounded=0;whiteSpace=wrap;html=1;shadow=0;dashed=0;fontFamily=Verdana;verticalAlign=top;strokeColor=#333333;strokeWidth=2;gradientColor=none;labelBackgroundColor=none;" vertex="1" parent="4CPlkzjtZhPGL_kiiR8u-2">
          <mxGeometry x="273" y="325" width="122" height="90" as="geometry"/>
        </mxCell>
        <mxCell id="4CPlkzjtZhPGL_kiiR8u-21" value="&lt;table border=&quot;1&quot; width=&quot;100%&quot; height=&quot;100%&quot; style=&quot;width:100%;height:100%;border-collapse:collapse;&quot;&gt;&lt;tbody&gt;&lt;tr&gt;&lt;td align=&quot;center&quot;&gt;Value 1&lt;/td&gt;&lt;td align=&quot;center&quot;&gt;Value 2&lt;/td&gt;&lt;td align=&quot;center&quot;&gt;Value 3&lt;/td&gt;&lt;/tr&gt;&lt;tr&gt;&lt;td align=&quot;center&quot;&gt;Value 4&lt;/td&gt;&lt;td align=&quot;center&quot;&gt;Value 5&lt;/td&gt;&lt;td align=&quot;center&quot;&gt;Value 6&lt;/td&gt;&lt;/tr&gt;&lt;tr&gt;&lt;td align=&quot;center&quot;&gt;Value 7&lt;/td&gt;&lt;td align=&quot;center&quot;&gt;Value 8&lt;/td&gt;&lt;td align=&quot;center&quot;&gt;Value 9&lt;/td&gt;&lt;/tr&gt;&lt;/tbody&gt;&lt;/table&gt;" style="text;html=1;strokeColor=#999999;fillColor=#ffffff;overflow=fill;rounded=0;shadow=0;dashed=0;fontFamily=Verdana;align=center;strokeWidth=1;labelBackgroundColor=none;textOpacity=20;fontStyle=1" vertex="1" parent="4CPlkzjtZhPGL_kiiR8u-2">
          <mxGeometry x="444" y="300" width="180" height="140" as="geometry"/>
        </mxCell>
        <mxCell id="4CPlkzjtZhPGL_kiiR8u-22" value="" style="rounded=0;whiteSpace=wrap;html=1;shadow=0;dashed=0;fontFamily=Verdana;verticalAlign=top;strokeColor=#333333;strokeWidth=2;gradientColor=none;labelBackgroundColor=none;fontStyle=1" vertex="1" parent="4CPlkzjtZhPGL_kiiR8u-2">
          <mxGeometry x="473" y="325" width="122" height="90" as="geometry"/>
        </mxCell>
        <mxCell id="4CPlkzjtZhPGL_kiiR8u-23" value="&lt;table border=&quot;1&quot; width=&quot;100%&quot; height=&quot;100%&quot; style=&quot;width:100%;height:100%;border-collapse:collapse;&quot;&gt;&lt;tbody&gt;&lt;tr&gt;&lt;td align=&quot;center&quot;&gt;Value 1&lt;/td&gt;&lt;td align=&quot;center&quot;&gt;Value 2&lt;/td&gt;&lt;td align=&quot;center&quot;&gt;Value 3&lt;/td&gt;&lt;/tr&gt;&lt;tr&gt;&lt;td align=&quot;center&quot;&gt;Value 4&lt;/td&gt;&lt;td align=&quot;center&quot;&gt;Value 5&lt;/td&gt;&lt;td align=&quot;center&quot;&gt;Value 6&lt;/td&gt;&lt;/tr&gt;&lt;tr&gt;&lt;td align=&quot;center&quot;&gt;Value 7&lt;/td&gt;&lt;td align=&quot;center&quot;&gt;Value 8&lt;/td&gt;&lt;td align=&quot;center&quot;&gt;Value 9&lt;/td&gt;&lt;/tr&gt;&lt;/tbody&gt;&lt;/table&gt;" style="text;html=1;strokeColor=#999999;fillColor=#ffffff;overflow=fill;rounded=0;shadow=0;dashed=0;fontFamily=Verdana;align=center;strokeWidth=1;labelBackgroundColor=none;textOpacity=20;fontStyle=1" vertex="1" parent="4CPlkzjtZhPGL_kiiR8u-2">
          <mxGeometry x="644" y="300" width="180" height="140" as="geometry"/>
        </mxCell>
        <mxCell id="4CPlkzjtZhPGL_kiiR8u-24" value="" style="rounded=0;whiteSpace=wrap;html=1;shadow=0;dashed=0;fontFamily=Verdana;verticalAlign=top;strokeColor=#333333;strokeWidth=2;gradientColor=none;labelBackgroundColor=none;fontStyle=1" vertex="1" parent="4CPlkzjtZhPGL_kiiR8u-2">
          <mxGeometry x="673" y="325" width="122" height="90" as="geometry"/>
        </mxCell>
        <mxCell id="4CPlkzjtZhPGL_kiiR8u-25" value="&lt;table border=&quot;1&quot; width=&quot;100%&quot; height=&quot;100%&quot; style=&quot;width:100%;height:100%;border-collapse:collapse;&quot;&gt;&lt;tbody&gt;&lt;tr&gt;&lt;td align=&quot;center&quot;&gt;Value 1&lt;/td&gt;&lt;td align=&quot;center&quot;&gt;Value 2&lt;/td&gt;&lt;td align=&quot;center&quot;&gt;Value 3&lt;/td&gt;&lt;/tr&gt;&lt;tr&gt;&lt;td align=&quot;center&quot;&gt;Value 4&lt;/td&gt;&lt;td align=&quot;center&quot;&gt;Value 5&lt;/td&gt;&lt;td align=&quot;center&quot;&gt;Value 6&lt;/td&gt;&lt;/tr&gt;&lt;tr&gt;&lt;td align=&quot;center&quot;&gt;Value 7&lt;/td&gt;&lt;td align=&quot;center&quot;&gt;Value 8&lt;/td&gt;&lt;td align=&quot;center&quot;&gt;Value 9&lt;/td&gt;&lt;/tr&gt;&lt;/tbody&gt;&lt;/table&gt;" style="text;html=1;strokeColor=#999999;fillColor=#ffffff;overflow=fill;rounded=0;shadow=0;dashed=0;fontFamily=Verdana;align=center;strokeWidth=1;labelBackgroundColor=none;textOpacity=20;fontStyle=1" vertex="1" parent="4CPlkzjtZhPGL_kiiR8u-2">
          <mxGeometry x="850" y="300" width="180" height="140" as="geometry"/>
        </mxCell>
        <mxCell id="4CPlkzjtZhPGL_kiiR8u-26" value="" style="rounded=0;whiteSpace=wrap;html=1;shadow=0;dashed=0;fontFamily=Verdana;verticalAlign=top;strokeColor=#333333;strokeWidth=2;gradientColor=none;labelBackgroundColor=none;fontStyle=1" vertex="1" parent="4CPlkzjtZhPGL_kiiR8u-2">
          <mxGeometry x="879" y="325" width="122" height="90" as="geometry"/>
        </mxCell>
        <mxCell id="4CPlkzjtZhPGL_kiiR8u-27" value="&lt;table border=&quot;1&quot; width=&quot;100%&quot; height=&quot;100%&quot; style=&quot;width:100%;height:100%;border-collapse:collapse;&quot;&gt;&lt;tbody&gt;&lt;tr&gt;&lt;td align=&quot;center&quot;&gt;Value 1&lt;/td&gt;&lt;td align=&quot;center&quot;&gt;Value 2&lt;/td&gt;&lt;td align=&quot;center&quot;&gt;Value 3&lt;/td&gt;&lt;/tr&gt;&lt;tr&gt;&lt;td align=&quot;center&quot;&gt;Value 4&lt;/td&gt;&lt;td align=&quot;center&quot;&gt;Value 5&lt;/td&gt;&lt;td align=&quot;center&quot;&gt;Value 6&lt;/td&gt;&lt;/tr&gt;&lt;tr&gt;&lt;td align=&quot;center&quot;&gt;Value 7&lt;/td&gt;&lt;td align=&quot;center&quot;&gt;Value 8&lt;/td&gt;&lt;td align=&quot;center&quot;&gt;Value 9&lt;/td&gt;&lt;/tr&gt;&lt;/tbody&gt;&lt;/table&gt;" style="text;html=1;strokeColor=#999999;fillColor=#ffffff;overflow=fill;rounded=0;shadow=0;dashed=0;fontFamily=Verdana;align=center;strokeWidth=1;labelBackgroundColor=none;textOpacity=20;fontStyle=1" vertex="1" parent="4CPlkzjtZhPGL_kiiR8u-2">
          <mxGeometry x="39" y="460" width="180" height="140" as="geometry"/>
        </mxCell>
        <mxCell id="4CPlkzjtZhPGL_kiiR8u-28" value="" style="rounded=0;whiteSpace=wrap;html=1;shadow=0;dashed=0;fontFamily=Verdana;verticalAlign=top;strokeColor=#333333;strokeWidth=2;gradientColor=none;labelBackgroundColor=none;fontStyle=1" vertex="1" parent="4CPlkzjtZhPGL_kiiR8u-2">
          <mxGeometry x="68" y="485" width="122" height="90" as="geometry"/>
        </mxCell>
        <mxCell id="4CPlkzjtZhPGL_kiiR8u-29" value="&lt;table border=&quot;1&quot; width=&quot;100%&quot; height=&quot;100%&quot; style=&quot;width:100%;height:100%;border-collapse:collapse;&quot;&gt;&lt;tbody&gt;&lt;tr&gt;&lt;td align=&quot;center&quot;&gt;Value 1&lt;/td&gt;&lt;td align=&quot;center&quot;&gt;Value 2&lt;/td&gt;&lt;td align=&quot;center&quot;&gt;Value 3&lt;/td&gt;&lt;/tr&gt;&lt;tr&gt;&lt;td align=&quot;center&quot;&gt;Value 4&lt;/td&gt;&lt;td align=&quot;center&quot;&gt;Value 5&lt;/td&gt;&lt;td align=&quot;center&quot;&gt;Value 6&lt;/td&gt;&lt;/tr&gt;&lt;tr&gt;&lt;td align=&quot;center&quot;&gt;Value 7&lt;/td&gt;&lt;td align=&quot;center&quot;&gt;Value 8&lt;/td&gt;&lt;td align=&quot;center&quot;&gt;Value 9&lt;/td&gt;&lt;/tr&gt;&lt;/tbody&gt;&lt;/table&gt;" style="text;html=1;strokeColor=#999999;fillColor=#ffffff;overflow=fill;rounded=0;shadow=0;dashed=0;fontFamily=Verdana;align=center;strokeWidth=1;labelBackgroundColor=none;textOpacity=20;fontStyle=1" vertex="1" parent="4CPlkzjtZhPGL_kiiR8u-2">
          <mxGeometry x="243" y="460" width="180" height="140" as="geometry"/>
        </mxCell>
        <mxCell id="4CPlkzjtZhPGL_kiiR8u-30" value="" style="rounded=0;whiteSpace=wrap;html=1;shadow=0;dashed=0;fontFamily=Verdana;verticalAlign=top;strokeColor=#333333;strokeWidth=2;gradientColor=none;labelBackgroundColor=none;fontStyle=1" vertex="1" parent="4CPlkzjtZhPGL_kiiR8u-2">
          <mxGeometry x="272" y="485" width="122" height="90" as="geometry"/>
        </mxCell>
        <mxCell id="4CPlkzjtZhPGL_kiiR8u-31" value="&lt;table border=&quot;1&quot; width=&quot;100%&quot; height=&quot;100%&quot; style=&quot;width:100%;height:100%;border-collapse:collapse;&quot;&gt;&lt;tbody&gt;&lt;tr&gt;&lt;td align=&quot;center&quot;&gt;Value 1&lt;/td&gt;&lt;td align=&quot;center&quot;&gt;Value 2&lt;/td&gt;&lt;td align=&quot;center&quot;&gt;Value 3&lt;/td&gt;&lt;/tr&gt;&lt;tr&gt;&lt;td align=&quot;center&quot;&gt;Value 4&lt;/td&gt;&lt;td align=&quot;center&quot;&gt;Value 5&lt;/td&gt;&lt;td align=&quot;center&quot;&gt;Value 6&lt;/td&gt;&lt;/tr&gt;&lt;tr&gt;&lt;td align=&quot;center&quot;&gt;Value 7&lt;/td&gt;&lt;td align=&quot;center&quot;&gt;Value 8&lt;/td&gt;&lt;td align=&quot;center&quot;&gt;Value 9&lt;/td&gt;&lt;/tr&gt;&lt;/tbody&gt;&lt;/table&gt;" style="text;html=1;strokeColor=#999999;fillColor=#ffffff;overflow=fill;rounded=0;shadow=0;dashed=0;fontFamily=Verdana;align=center;strokeWidth=1;labelBackgroundColor=none;textOpacity=20;fontStyle=1" vertex="1" parent="4CPlkzjtZhPGL_kiiR8u-2">
          <mxGeometry x="443" y="460" width="180" height="140" as="geometry"/>
        </mxCell>
        <mxCell id="4CPlkzjtZhPGL_kiiR8u-32" value="" style="rounded=0;whiteSpace=wrap;html=1;shadow=0;dashed=0;fontFamily=Verdana;verticalAlign=top;strokeColor=#333333;strokeWidth=2;gradientColor=none;labelBackgroundColor=none;fontStyle=1" vertex="1" parent="4CPlkzjtZhPGL_kiiR8u-2">
          <mxGeometry x="472" y="485" width="122" height="90" as="geometry"/>
        </mxCell>
        <mxCell id="4CPlkzjtZhPGL_kiiR8u-33" value="&lt;table border=&quot;1&quot; width=&quot;100%&quot; height=&quot;100%&quot; style=&quot;width:100%;height:100%;border-collapse:collapse;&quot;&gt;&lt;tbody&gt;&lt;tr&gt;&lt;td align=&quot;center&quot;&gt;Value 1&lt;/td&gt;&lt;td align=&quot;center&quot;&gt;Value 2&lt;/td&gt;&lt;td align=&quot;center&quot;&gt;Value 3&lt;/td&gt;&lt;/tr&gt;&lt;tr&gt;&lt;td align=&quot;center&quot;&gt;Value 4&lt;/td&gt;&lt;td align=&quot;center&quot;&gt;Value 5&lt;/td&gt;&lt;td align=&quot;center&quot;&gt;Value 6&lt;/td&gt;&lt;/tr&gt;&lt;tr&gt;&lt;td align=&quot;center&quot;&gt;Value 7&lt;/td&gt;&lt;td align=&quot;center&quot;&gt;Value 8&lt;/td&gt;&lt;td align=&quot;center&quot;&gt;Value 9&lt;/td&gt;&lt;/tr&gt;&lt;/tbody&gt;&lt;/table&gt;" style="text;html=1;strokeColor=#999999;fillColor=#ffffff;overflow=fill;rounded=0;shadow=0;dashed=0;fontFamily=Verdana;align=center;strokeWidth=1;labelBackgroundColor=none;textOpacity=20;fontStyle=1" vertex="1" parent="4CPlkzjtZhPGL_kiiR8u-2">
          <mxGeometry x="643" y="460" width="180" height="140" as="geometry"/>
        </mxCell>
        <mxCell id="4CPlkzjtZhPGL_kiiR8u-34" value="" style="rounded=0;whiteSpace=wrap;html=1;shadow=0;dashed=0;fontFamily=Verdana;verticalAlign=top;strokeColor=#333333;strokeWidth=2;gradientColor=none;labelBackgroundColor=none;fontStyle=1" vertex="1" parent="4CPlkzjtZhPGL_kiiR8u-2">
          <mxGeometry x="672" y="485" width="122" height="90" as="geometry"/>
        </mxCell>
        <mxCell id="4CPlkzjtZhPGL_kiiR8u-35" value="&lt;table border=&quot;1&quot; width=&quot;100%&quot; height=&quot;100%&quot; style=&quot;width:100%;height:100%;border-collapse:collapse;&quot;&gt;&lt;tbody&gt;&lt;tr&gt;&lt;td align=&quot;center&quot;&gt;Value 1&lt;/td&gt;&lt;td align=&quot;center&quot;&gt;Value 2&lt;/td&gt;&lt;td align=&quot;center&quot;&gt;Value 3&lt;/td&gt;&lt;/tr&gt;&lt;tr&gt;&lt;td align=&quot;center&quot;&gt;Value 4&lt;/td&gt;&lt;td align=&quot;center&quot;&gt;Value 5&lt;/td&gt;&lt;td align=&quot;center&quot;&gt;Value 6&lt;/td&gt;&lt;/tr&gt;&lt;tr&gt;&lt;td align=&quot;center&quot;&gt;Value 7&lt;/td&gt;&lt;td align=&quot;center&quot;&gt;Value 8&lt;/td&gt;&lt;td align=&quot;center&quot;&gt;Value 9&lt;/td&gt;&lt;/tr&gt;&lt;/tbody&gt;&lt;/table&gt;" style="text;html=1;strokeColor=#999999;fillColor=#ffffff;overflow=fill;rounded=0;shadow=0;dashed=0;fontFamily=Verdana;align=center;strokeWidth=1;labelBackgroundColor=none;textOpacity=20;fontStyle=1" vertex="1" parent="4CPlkzjtZhPGL_kiiR8u-2">
          <mxGeometry x="849" y="460" width="180" height="140" as="geometry"/>
        </mxCell>
        <mxCell id="4CPlkzjtZhPGL_kiiR8u-36" value="" style="rounded=0;whiteSpace=wrap;html=1;shadow=0;dashed=0;fontFamily=Verdana;verticalAlign=top;strokeColor=#333333;strokeWidth=2;gradientColor=none;labelBackgroundColor=none;fontStyle=1" vertex="1" parent="4CPlkzjtZhPGL_kiiR8u-2">
          <mxGeometry x="878" y="485" width="122" height="90" as="geometry"/>
        </mxCell>
        <mxCell id="4CPlkzjtZhPGL_kiiR8u-37" value="&lt;table border=&quot;1&quot; width=&quot;100%&quot; height=&quot;100%&quot; style=&quot;width:100%;height:100%;border-collapse:collapse;&quot;&gt;&lt;tbody&gt;&lt;tr&gt;&lt;td align=&quot;center&quot;&gt;Value 1&lt;/td&gt;&lt;td align=&quot;center&quot;&gt;Value 2&lt;/td&gt;&lt;td align=&quot;center&quot;&gt;Value 3&lt;/td&gt;&lt;/tr&gt;&lt;tr&gt;&lt;td align=&quot;center&quot;&gt;Value 4&lt;/td&gt;&lt;td align=&quot;center&quot;&gt;Value 5&lt;/td&gt;&lt;td align=&quot;center&quot;&gt;Value 6&lt;/td&gt;&lt;/tr&gt;&lt;tr&gt;&lt;td align=&quot;center&quot;&gt;Value 7&lt;/td&gt;&lt;td align=&quot;center&quot;&gt;Value 8&lt;/td&gt;&lt;td align=&quot;center&quot;&gt;Value 9&lt;/td&gt;&lt;/tr&gt;&lt;/tbody&gt;&lt;/table&gt;" style="text;html=1;strokeColor=#999999;fillColor=#ffffff;overflow=fill;rounded=0;shadow=0;dashed=0;fontFamily=Verdana;align=center;strokeWidth=1;labelBackgroundColor=none;textOpacity=20;fontStyle=1" vertex="1" parent="4CPlkzjtZhPGL_kiiR8u-2">
          <mxGeometry x="40" y="620" width="180" height="140" as="geometry"/>
        </mxCell>
        <mxCell id="4CPlkzjtZhPGL_kiiR8u-38" value="" style="rounded=0;whiteSpace=wrap;html=1;shadow=0;dashed=0;fontFamily=Verdana;verticalAlign=top;strokeColor=#333333;strokeWidth=2;gradientColor=none;labelBackgroundColor=none;fontStyle=1" vertex="1" parent="4CPlkzjtZhPGL_kiiR8u-2">
          <mxGeometry x="69" y="645" width="122" height="90" as="geometry"/>
        </mxCell>
        <mxCell id="4CPlkzjtZhPGL_kiiR8u-39" value="&lt;table border=&quot;1&quot; width=&quot;100%&quot; height=&quot;100%&quot; style=&quot;width:100%;height:100%;border-collapse:collapse;&quot;&gt;&lt;tbody&gt;&lt;tr&gt;&lt;td align=&quot;center&quot;&gt;Value 1&lt;/td&gt;&lt;td align=&quot;center&quot;&gt;Value 2&lt;/td&gt;&lt;td align=&quot;center&quot;&gt;Value 3&lt;/td&gt;&lt;/tr&gt;&lt;tr&gt;&lt;td align=&quot;center&quot;&gt;Value 4&lt;/td&gt;&lt;td align=&quot;center&quot;&gt;Value 5&lt;/td&gt;&lt;td align=&quot;center&quot;&gt;Value 6&lt;/td&gt;&lt;/tr&gt;&lt;tr&gt;&lt;td align=&quot;center&quot;&gt;Value 7&lt;/td&gt;&lt;td align=&quot;center&quot;&gt;Value 8&lt;/td&gt;&lt;td align=&quot;center&quot;&gt;Value 9&lt;/td&gt;&lt;/tr&gt;&lt;/tbody&gt;&lt;/table&gt;" style="text;html=1;strokeColor=#999999;fillColor=#ffffff;overflow=fill;rounded=0;shadow=0;dashed=0;fontFamily=Verdana;align=center;strokeWidth=1;labelBackgroundColor=none;textOpacity=20;fontStyle=1" vertex="1" parent="4CPlkzjtZhPGL_kiiR8u-2">
          <mxGeometry x="240" y="620" width="180" height="140" as="geometry"/>
        </mxCell>
        <mxCell id="4CPlkzjtZhPGL_kiiR8u-40" value="" style="rounded=0;whiteSpace=wrap;html=1;shadow=0;dashed=0;fontFamily=Verdana;verticalAlign=top;strokeColor=#333333;strokeWidth=2;gradientColor=none;labelBackgroundColor=none;fontStyle=1" vertex="1" parent="4CPlkzjtZhPGL_kiiR8u-2">
          <mxGeometry x="269" y="645" width="122" height="90" as="geometry"/>
        </mxCell>
        <mxCell id="4CPlkzjtZhPGL_kiiR8u-41" value="&lt;table border=&quot;1&quot; width=&quot;100%&quot; height=&quot;100%&quot; style=&quot;width:100%;height:100%;border-collapse:collapse;&quot;&gt;&lt;tbody&gt;&lt;tr&gt;&lt;td align=&quot;center&quot;&gt;Value 1&lt;/td&gt;&lt;td align=&quot;center&quot;&gt;Value 2&lt;/td&gt;&lt;td align=&quot;center&quot;&gt;Value 3&lt;/td&gt;&lt;/tr&gt;&lt;tr&gt;&lt;td align=&quot;center&quot;&gt;Value 4&lt;/td&gt;&lt;td align=&quot;center&quot;&gt;Value 5&lt;/td&gt;&lt;td align=&quot;center&quot;&gt;Value 6&lt;/td&gt;&lt;/tr&gt;&lt;tr&gt;&lt;td align=&quot;center&quot;&gt;Value 7&lt;/td&gt;&lt;td align=&quot;center&quot;&gt;Value 8&lt;/td&gt;&lt;td align=&quot;center&quot;&gt;Value 9&lt;/td&gt;&lt;/tr&gt;&lt;/tbody&gt;&lt;/table&gt;" style="text;html=1;strokeColor=#999999;fillColor=#ffffff;overflow=fill;rounded=0;shadow=0;dashed=0;fontFamily=Verdana;align=center;strokeWidth=1;labelBackgroundColor=none;textOpacity=20;fontStyle=1" vertex="1" parent="4CPlkzjtZhPGL_kiiR8u-2">
          <mxGeometry x="444" y="620" width="180" height="140" as="geometry"/>
        </mxCell>
        <mxCell id="4CPlkzjtZhPGL_kiiR8u-42" value="" style="rounded=0;whiteSpace=wrap;html=1;shadow=0;dashed=0;fontFamily=Verdana;verticalAlign=top;strokeColor=#333333;strokeWidth=2;gradientColor=none;labelBackgroundColor=none;fontStyle=1" vertex="1" parent="4CPlkzjtZhPGL_kiiR8u-2">
          <mxGeometry x="473" y="645" width="122" height="90" as="geometry"/>
        </mxCell>
        <mxCell id="4CPlkzjtZhPGL_kiiR8u-43" value="&lt;table border=&quot;1&quot; width=&quot;100%&quot; height=&quot;100%&quot; style=&quot;width:100%;height:100%;border-collapse:collapse;&quot;&gt;&lt;tbody&gt;&lt;tr&gt;&lt;td align=&quot;center&quot;&gt;Value 1&lt;/td&gt;&lt;td align=&quot;center&quot;&gt;Value 2&lt;/td&gt;&lt;td align=&quot;center&quot;&gt;Value 3&lt;/td&gt;&lt;/tr&gt;&lt;tr&gt;&lt;td align=&quot;center&quot;&gt;Value 4&lt;/td&gt;&lt;td align=&quot;center&quot;&gt;Value 5&lt;/td&gt;&lt;td align=&quot;center&quot;&gt;Value 6&lt;/td&gt;&lt;/tr&gt;&lt;tr&gt;&lt;td align=&quot;center&quot;&gt;Value 7&lt;/td&gt;&lt;td align=&quot;center&quot;&gt;Value 8&lt;/td&gt;&lt;td align=&quot;center&quot;&gt;Value 9&lt;/td&gt;&lt;/tr&gt;&lt;/tbody&gt;&lt;/table&gt;" style="text;html=1;strokeColor=#999999;fillColor=#ffffff;overflow=fill;rounded=0;shadow=0;dashed=0;fontFamily=Verdana;align=center;strokeWidth=1;labelBackgroundColor=none;textOpacity=20;fontStyle=1" vertex="1" parent="4CPlkzjtZhPGL_kiiR8u-2">
          <mxGeometry x="644" y="620" width="180" height="140" as="geometry"/>
        </mxCell>
        <mxCell id="4CPlkzjtZhPGL_kiiR8u-44" value="" style="rounded=0;whiteSpace=wrap;html=1;shadow=0;dashed=0;fontFamily=Verdana;verticalAlign=top;strokeColor=#333333;strokeWidth=2;gradientColor=none;labelBackgroundColor=none;fontStyle=1" vertex="1" parent="4CPlkzjtZhPGL_kiiR8u-2">
          <mxGeometry x="673" y="645" width="122" height="90" as="geometry"/>
        </mxCell>
        <mxCell id="4CPlkzjtZhPGL_kiiR8u-45" value="&lt;table border=&quot;1&quot; width=&quot;100%&quot; height=&quot;100%&quot; style=&quot;width:100%;height:100%;border-collapse:collapse;&quot;&gt;&lt;tbody&gt;&lt;tr&gt;&lt;td align=&quot;center&quot;&gt;Value 1&lt;/td&gt;&lt;td align=&quot;center&quot;&gt;Value 2&lt;/td&gt;&lt;td align=&quot;center&quot;&gt;Value 3&lt;/td&gt;&lt;/tr&gt;&lt;tr&gt;&lt;td align=&quot;center&quot;&gt;Value 4&lt;/td&gt;&lt;td align=&quot;center&quot;&gt;Value 5&lt;/td&gt;&lt;td align=&quot;center&quot;&gt;Value 6&lt;/td&gt;&lt;/tr&gt;&lt;tr&gt;&lt;td align=&quot;center&quot;&gt;Value 7&lt;/td&gt;&lt;td align=&quot;center&quot;&gt;Value 8&lt;/td&gt;&lt;td align=&quot;center&quot;&gt;Value 9&lt;/td&gt;&lt;/tr&gt;&lt;/tbody&gt;&lt;/table&gt;" style="text;html=1;strokeColor=#999999;fillColor=#ffffff;overflow=fill;rounded=0;shadow=0;dashed=0;fontFamily=Verdana;align=center;strokeWidth=1;labelBackgroundColor=none;textOpacity=20;fontStyle=1" vertex="1" parent="4CPlkzjtZhPGL_kiiR8u-2">
          <mxGeometry x="850" y="620" width="180" height="140" as="geometry"/>
        </mxCell>
        <mxCell id="4CPlkzjtZhPGL_kiiR8u-46" value="" style="rounded=0;whiteSpace=wrap;html=1;shadow=0;dashed=0;fontFamily=Verdana;verticalAlign=top;strokeColor=#333333;strokeWidth=2;gradientColor=none;labelBackgroundColor=none;fontStyle=1" vertex="1" parent="4CPlkzjtZhPGL_kiiR8u-2">
          <mxGeometry x="879" y="645" width="122" height="90" as="geometry"/>
        </mxCell>
      </root>
    </mxGraphModel>
  </diagram>
  <diagram name="Main-2" id="2cc2dc42-3aac-f2a9-1cec-7a8b7cbee084">
    <mxGraphModel dx="1408" dy="748" grid="1" gridSize="10" guides="1" tooltips="1" connect="1" arrows="1" fold="1" page="1" pageScale="1" pageWidth="1100" pageHeight="850" background="#ffffff" math="0" shadow="0">
      <root>
        <mxCell id="0"/>
        <mxCell id="1" parent="0"/>
        <mxCell id="7026571954dc6520-1" value="" style="strokeWidth=1;shadow=0;dashed=0;align=center;html=1;shape=mxgraph.mockup.containers.browserWindow;rSize=0;strokeColor=#666666;mainText=,;recursiveResize=0;rounded=0;labelBackgroundColor=none;fontFamily=Verdana;fontSize=12" parent="1" vertex="1">
          <mxGeometry x="30" y="20" width="1050" height="820" as="geometry"/>
        </mxCell>
        <mxCell id="7026571954dc6520-2" value="Page 1" style="strokeWidth=1;shadow=0;dashed=0;align=center;html=1;shape=mxgraph.mockup.containers.anchor;fontSize=17;fontColor=#666666;align=left;" parent="7026571954dc6520-1" vertex="1">
          <mxGeometry x="60" y="12" width="110" height="26" as="geometry"/>
        </mxCell>
        <mxCell id="7026571954dc6520-3" value="https://www.default.com" style="strokeWidth=1;shadow=0;dashed=0;align=center;html=1;shape=mxgraph.mockup.containers.anchor;rSize=0;fontSize=17;fontColor=#666666;align=left;" parent="7026571954dc6520-1" vertex="1">
          <mxGeometry x="130" y="60" width="250" height="26" as="geometry"/>
        </mxCell>
        <mxCell id="7026571954dc6520-14" value="Search" style="strokeWidth=1;shadow=0;dashed=0;align=center;html=1;shape=mxgraph.mockup.forms.searchBox;strokeColor=#999999;mainText=;strokeColor2=#008cff;fontColor=#666666;fontSize=17;align=left;spacingLeft=3;rounded=0;labelBackgroundColor=none;" parent="7026571954dc6520-1" vertex="1">
          <mxGeometry x="410" y="200" width="220" height="30" as="geometry"/>
        </mxCell>
        <mxCell id="7026571954dc6520-15" value="" style="verticalLabelPosition=bottom;shadow=0;dashed=0;align=center;html=1;verticalAlign=top;strokeWidth=1;shape=mxgraph.mockup.markup.line;strokeColor=#999999;rounded=0;labelBackgroundColor=none;fillColor=#ffffff;fontFamily=Verdana;fontSize=12;fontColor=#000000;" parent="7026571954dc6520-1" vertex="1">
          <mxGeometry y="150" width="1050" height="20" as="geometry"/>
        </mxCell>
        <mxCell id="v0dwD4PK1GCNSTOv3Fgv-1" value="" style="verticalLabelPosition=bottom;shadow=0;dashed=0;align=center;html=1;verticalAlign=top;strokeWidth=1;shape=mxgraph.mockup.markup.line;strokeColor=#999999;rounded=0;labelBackgroundColor=none;fillColor=#ffffff;fontFamily=Verdana;fontSize=12;fontColor=#000000;" parent="7026571954dc6520-1" vertex="1">
          <mxGeometry y="100" width="1050" height="20" as="geometry"/>
        </mxCell>
        <mxCell id="v0dwD4PK1GCNSTOv3Fgv-2" value="LOGO" style="text;html=1;points=[];align=center;verticalAlign=middle;spacingTop=-4;fontSize=30;fontFamily=Verdana;fontColor=#000000;" parent="7026571954dc6520-1" vertex="1">
          <mxGeometry y="110" width="110" height="50" as="geometry"/>
        </mxCell>
        <mxCell id="v0dwD4PK1GCNSTOv3Fgv-4" value="MENU2" style="text;html=1;points=[];align=center;verticalAlign=middle;spacingTop=-4;fontSize=18;fontFamily=Verdana;fontColor=#000000;" parent="7026571954dc6520-1" vertex="1">
          <mxGeometry x="220" y="110" width="110" height="50" as="geometry"/>
        </mxCell>
        <mxCell id="v0dwD4PK1GCNSTOv3Fgv-5" value="MENU1" style="text;html=1;points=[];align=center;verticalAlign=middle;spacingTop=-4;fontSize=18;fontFamily=Verdana;fontColor=#000000;" parent="7026571954dc6520-1" vertex="1">
          <mxGeometry x="110" y="110" width="110" height="50" as="geometry"/>
        </mxCell>
        <mxCell id="O_4_1tm-y9Cq93aSi-Ag-8" value="" style="pointerEvents=1;shadow=0;dashed=0;html=1;strokeColor=none;fillColor=#505050;labelPosition=center;verticalLabelPosition=bottom;verticalAlign=top;outlineConnect=0;align=center;shape=mxgraph.office.users.user;" vertex="1" parent="7026571954dc6520-1">
          <mxGeometry x="991.5" y="117" width="30" height="33" as="geometry"/>
        </mxCell>
        <mxCell id="O_4_1tm-y9Cq93aSi-Ag-9" value="&lt;table border=&quot;1&quot; width=&quot;100%&quot; height=&quot;100%&quot; style=&quot;width:100%;height:100%;border-collapse:collapse;&quot;&gt;&lt;tr&gt;&lt;td align=&quot;center&quot;&gt;Value 1&lt;/td&gt;&lt;td align=&quot;center&quot;&gt;Value 2&lt;/td&gt;&lt;td align=&quot;center&quot;&gt;Value 3&lt;/td&gt;&lt;/tr&gt;&lt;tr&gt;&lt;td align=&quot;center&quot;&gt;Value 4&lt;/td&gt;&lt;td align=&quot;center&quot;&gt;Value 5&lt;/td&gt;&lt;td align=&quot;center&quot;&gt;Value 6&lt;/td&gt;&lt;/tr&gt;&lt;tr&gt;&lt;td align=&quot;center&quot;&gt;Value 7&lt;/td&gt;&lt;td align=&quot;center&quot;&gt;Value 8&lt;/td&gt;&lt;td align=&quot;center&quot;&gt;Value 9&lt;/td&gt;&lt;/tr&gt;&lt;/table&gt;" style="text;html=1;strokeColor=#999999;fillColor=#ffffff;overflow=fill;rounded=0;shadow=0;dashed=0;fontFamily=Verdana;align=center;strokeWidth=1;labelBackgroundColor=none;" vertex="1" parent="7026571954dc6520-1">
          <mxGeometry x="41.5" y="270" width="257" height="200" as="geometry"/>
        </mxCell>
        <mxCell id="O_4_1tm-y9Cq93aSi-Ag-11" value="&lt;table border=&quot;1&quot; width=&quot;100%&quot; height=&quot;100%&quot; style=&quot;width:100%;height:100%;border-collapse:collapse;&quot;&gt;&lt;tr&gt;&lt;td align=&quot;center&quot;&gt;Value 1&lt;/td&gt;&lt;td align=&quot;center&quot;&gt;Value 2&lt;/td&gt;&lt;td align=&quot;center&quot;&gt;Value 3&lt;/td&gt;&lt;/tr&gt;&lt;tr&gt;&lt;td align=&quot;center&quot;&gt;Value 4&lt;/td&gt;&lt;td align=&quot;center&quot;&gt;Value 5&lt;/td&gt;&lt;td align=&quot;center&quot;&gt;Value 6&lt;/td&gt;&lt;/tr&gt;&lt;tr&gt;&lt;td align=&quot;center&quot;&gt;Value 7&lt;/td&gt;&lt;td align=&quot;center&quot;&gt;Value 8&lt;/td&gt;&lt;td align=&quot;center&quot;&gt;Value 9&lt;/td&gt;&lt;/tr&gt;&lt;/table&gt;" style="text;html=1;strokeColor=#999999;fillColor=#ffffff;overflow=fill;rounded=0;shadow=0;dashed=0;fontFamily=Verdana;align=center;strokeWidth=1;labelBackgroundColor=none;" vertex="1" parent="7026571954dc6520-1">
          <mxGeometry x="749.5" y="270" width="257" height="200" as="geometry"/>
        </mxCell>
        <mxCell id="O_4_1tm-y9Cq93aSi-Ag-12" value="&lt;table border=&quot;1&quot; width=&quot;100%&quot; height=&quot;100%&quot; style=&quot;width:100%;height:100%;border-collapse:collapse;&quot;&gt;&lt;tr&gt;&lt;td align=&quot;center&quot;&gt;Value 1&lt;/td&gt;&lt;td align=&quot;center&quot;&gt;Value 2&lt;/td&gt;&lt;td align=&quot;center&quot;&gt;Value 3&lt;/td&gt;&lt;/tr&gt;&lt;tr&gt;&lt;td align=&quot;center&quot;&gt;Value 4&lt;/td&gt;&lt;td align=&quot;center&quot;&gt;Value 5&lt;/td&gt;&lt;td align=&quot;center&quot;&gt;Value 6&lt;/td&gt;&lt;/tr&gt;&lt;tr&gt;&lt;td align=&quot;center&quot;&gt;Value 7&lt;/td&gt;&lt;td align=&quot;center&quot;&gt;Value 8&lt;/td&gt;&lt;td align=&quot;center&quot;&gt;Value 9&lt;/td&gt;&lt;/tr&gt;&lt;/table&gt;" style="text;html=1;strokeColor=#999999;fillColor=#ffffff;overflow=fill;rounded=0;shadow=0;dashed=0;fontFamily=Verdana;align=center;strokeWidth=1;labelBackgroundColor=none;" vertex="1" parent="7026571954dc6520-1">
          <mxGeometry x="391" y="270" width="257" height="200" as="geometry"/>
        </mxCell>
        <mxCell id="O_4_1tm-y9Cq93aSi-Ag-13" value="&lt;table border=&quot;1&quot; width=&quot;100%&quot; height=&quot;100%&quot; style=&quot;width:100%;height:100%;border-collapse:collapse;&quot;&gt;&lt;tr&gt;&lt;td align=&quot;center&quot;&gt;Value 1&lt;/td&gt;&lt;td align=&quot;center&quot;&gt;Value 2&lt;/td&gt;&lt;td align=&quot;center&quot;&gt;Value 3&lt;/td&gt;&lt;/tr&gt;&lt;tr&gt;&lt;td align=&quot;center&quot;&gt;Value 4&lt;/td&gt;&lt;td align=&quot;center&quot;&gt;Value 5&lt;/td&gt;&lt;td align=&quot;center&quot;&gt;Value 6&lt;/td&gt;&lt;/tr&gt;&lt;tr&gt;&lt;td align=&quot;center&quot;&gt;Value 7&lt;/td&gt;&lt;td align=&quot;center&quot;&gt;Value 8&lt;/td&gt;&lt;td align=&quot;center&quot;&gt;Value 9&lt;/td&gt;&lt;/tr&gt;&lt;/table&gt;" style="text;html=1;strokeColor=#999999;fillColor=#ffffff;overflow=fill;rounded=0;shadow=0;dashed=0;fontFamily=Verdana;align=center;strokeWidth=1;labelBackgroundColor=none;" vertex="1" parent="7026571954dc6520-1">
          <mxGeometry x="41.5" y="530" width="257" height="200" as="geometry"/>
        </mxCell>
        <mxCell id="O_4_1tm-y9Cq93aSi-Ag-14" value="&lt;table border=&quot;1&quot; width=&quot;100%&quot; height=&quot;100%&quot; style=&quot;width:100%;height:100%;border-collapse:collapse;&quot;&gt;&lt;tr&gt;&lt;td align=&quot;center&quot;&gt;Value 1&lt;/td&gt;&lt;td align=&quot;center&quot;&gt;Value 2&lt;/td&gt;&lt;td align=&quot;center&quot;&gt;Value 3&lt;/td&gt;&lt;/tr&gt;&lt;tr&gt;&lt;td align=&quot;center&quot;&gt;Value 4&lt;/td&gt;&lt;td align=&quot;center&quot;&gt;Value 5&lt;/td&gt;&lt;td align=&quot;center&quot;&gt;Value 6&lt;/td&gt;&lt;/tr&gt;&lt;tr&gt;&lt;td align=&quot;center&quot;&gt;Value 7&lt;/td&gt;&lt;td align=&quot;center&quot;&gt;Value 8&lt;/td&gt;&lt;td align=&quot;center&quot;&gt;Value 9&lt;/td&gt;&lt;/tr&gt;&lt;/table&gt;" style="text;html=1;strokeColor=#999999;fillColor=#ffffff;overflow=fill;rounded=0;shadow=0;dashed=0;fontFamily=Verdana;align=center;strokeWidth=1;labelBackgroundColor=none;" vertex="1" parent="7026571954dc6520-1">
          <mxGeometry x="391" y="530" width="257" height="200" as="geometry"/>
        </mxCell>
        <mxCell id="O_4_1tm-y9Cq93aSi-Ag-15" value="&lt;table border=&quot;1&quot; width=&quot;100%&quot; height=&quot;100%&quot; style=&quot;width:100%;height:100%;border-collapse:collapse;&quot;&gt;&lt;tr&gt;&lt;td align=&quot;center&quot;&gt;Value 1&lt;/td&gt;&lt;td align=&quot;center&quot;&gt;Value 2&lt;/td&gt;&lt;td align=&quot;center&quot;&gt;Value 3&lt;/td&gt;&lt;/tr&gt;&lt;tr&gt;&lt;td align=&quot;center&quot;&gt;Value 4&lt;/td&gt;&lt;td align=&quot;center&quot;&gt;Value 5&lt;/td&gt;&lt;td align=&quot;center&quot;&gt;Value 6&lt;/td&gt;&lt;/tr&gt;&lt;tr&gt;&lt;td align=&quot;center&quot;&gt;Value 7&lt;/td&gt;&lt;td align=&quot;center&quot;&gt;Value 8&lt;/td&gt;&lt;td align=&quot;center&quot;&gt;Value 9&lt;/td&gt;&lt;/tr&gt;&lt;/table&gt;" style="text;html=1;strokeColor=#999999;fillColor=#ffffff;overflow=fill;rounded=0;shadow=0;dashed=0;fontFamily=Verdana;align=center;strokeWidth=1;labelBackgroundColor=none;" vertex="1" parent="7026571954dc6520-1">
          <mxGeometry x="749.5" y="530" width="257" height="200" as="geometry"/>
        </mxCell>
      </root>
    </mxGraphModel>
  </diagram>
</mxfile>
